HIERARCHY
ROOT Pelvis
{
	OFFSET 0.000000 0.000000 0.000000
	CHANNELS 6 Xposition Yposition Zposition Zrotation Yrotation Xrotation 
	JOINT Left_hip
	{
		OFFSET 0.070241 -0.085575 -0.010474
		CHANNELS 3 Zrotation Yrotation Xrotation
		JOINT Left_knee
		{
			OFFSET 0.032125 -0.356873 -0.000555
			CHANNELS 3 Zrotation Yrotation Xrotation
			JOINT Left_ankle
			{
				OFFSET -0.010961 -0.370212 -0.042278
				CHANNELS 3 Zrotation Yrotation Xrotation
				JOINT Left_foot
				{
					OFFSET 0.023322 -0.052281 0.110104
					CHANNELS 3 Zrotation Yrotation Xrotation
					End Site
					{
						OFFSET 0.000000 0.000000 0.000000
					}
				}
			}
		}
	}
	JOINT Right_hip
	{
		OFFSET -0.068518 -0.084320 -0.007402
		CHANNELS 3 Zrotation Yrotation Xrotation
		JOINT Right_knee
		{
			OFFSET -0.037345 -0.364815 -0.003619
			CHANNELS 3 Zrotation Yrotation Xrotation
			JOINT Right_ankle
			{
				OFFSET 0.013394 -0.370006 -0.039954
				CHANNELS 3 Zrotation Yrotation Xrotation
				JOINT Right_foot
				{
					OFFSET -0.019600 -0.045455 0.113223
					CHANNELS 3 Zrotation Yrotation Xrotation
					End Site
					{
						OFFSET 0.000000 0.000000 0.000000
					}
				}
			}
		}
	}
	JOINT Spine1
	{
		OFFSET -0.002404 0.098129 -0.018169
		CHANNELS 3 Zrotation Yrotation Xrotation
		JOINT Spine2
		{
			OFFSET 0.003989 0.127209 -0.001742
			CHANNELS 3 Zrotation Yrotation Xrotation
			JOINT Spine3
			{
				OFFSET 0.001758 0.046641 0.023475
				CHANNELS 3 Zrotation Yrotation Xrotation
				JOINT Neck
				{
					OFFSET -0.003759 0.194901 -0.039982
					CHANNELS 3 Zrotation Yrotation Xrotation
					JOINT Head
					{
						OFFSET 0.003999 0.063756 0.047665
						CHANNELS 3 Zrotation Yrotation Xrotation
						End Site
						{
							OFFSET 0.000000 0.000000 0.000000
						}
					}
				}
				JOINT Left_collar
				{
					OFFSET 0.071816 0.109048 -0.028973
					CHANNELS 3 Zrotation Yrotation Xrotation
					JOINT Left_shoulder
					{
						OFFSET 0.084027 0.032269 -0.006525
						CHANNELS 3 Zrotation Yrotation Xrotation
						JOINT Left_elbow
						{
							OFFSET 0.243854 -0.013992 -0.025905
							CHANNELS 3 Zrotation Yrotation Xrotation
							JOINT Left_wrist
							{
								OFFSET 0.232156 0.008196 -0.000339
								CHANNELS 3 Zrotation Yrotation Xrotation
								JOINT Left_palm
								{
									OFFSET 0.075377 -0.009461 -0.012494
									CHANNELS 3 Zrotation Yrotation Xrotation
									End Site
									{
										OFFSET 0.000000 0.000000 0.000000
									}
								}
							}
						}
					}
				}
				JOINT Right_collar
				{
					OFFSET -0.073768 0.107001 -0.033755
					CHANNELS 3 Zrotation Yrotation Xrotation
					JOINT Right_shoulder
					{
						OFFSET -0.086837 0.032868 -0.009431
						CHANNELS 3 Zrotation Yrotation Xrotation
						JOINT Right_elbow
						{
							OFFSET -0.236446 -0.012544 -0.018747
							CHANNELS 3 Zrotation Yrotation Xrotation
							JOINT Right_wrist
							{
								OFFSET -0.236110 0.006124 -0.004327
								CHANNELS 3 Zrotation Yrotation Xrotation
								JOINT Right_palm
								{
									OFFSET -0.074800 -0.006875 -0.009610
									CHANNELS 3 Zrotation Yrotation Xrotation
									End Site
									{
										OFFSET 0.000000 0.000000 0.000000
									}
								}
							}
						}
					}
				}
			}
		}
	}
}
MOTION
Frames: 14
Frame Time: 0.100000
0.000000 0.000000 0.000000 178.279210 16.152395 -8.225190 -2.988705 3.544873 -0.328500 0.511432 -3.749350 -5.463350 -1.586841 26.279059 -2.590444 9.815936 -3.928805 0.788112 3.639875 -4.810057 -1.065471 -0.271958 4.118938 -2.518835 -3.391900 -23.478416 -3.247815 8.935482 7.193606 8.760054 -0.299054 2.903185 -1.921153 0.752608 -1.555070 -5.587011 -1.008115 2.507990 -2.135712 -1.207095 -4.334967 4.525521 1.525516 -0.750656 8.483923 -7.907188 10.039614 -11.610713 2.476144 -17.017076 -13.023963 4.923986 5.901599 -11.983114 -5.069867 1.606072 31.676070 -1.767097 -8.042746 -2.098423 12.458553 -3.405365 -7.828034 -1.418754 14.361588 -14.831715 -10.344451 -7.986255 -6.769353 0.203658 -3.545161 34.780363 7.186692 9.853440 -4.257379 
-0.001594 0.000545 -0.001059 178.142429 16.651926 -8.565031 -3.042486 3.430472 -0.105244 0.504670 -3.834439 -5.429108 -1.684623 26.153085 -2.775801 9.950329 -3.979259 0.662743 3.592543 -4.859066 -0.988521 -0.247098 3.917391 -2.131146 -3.821691 -23.691861 -3.399893 9.496036 7.649021 9.288800 -0.305666 2.896924 -2.002770 0.685878 -1.524288 -5.393260 -1.161166 2.440001 -2.147325 -1.365149 -5.021626 4.923201 1.049002 -1.303082 9.225866 -8.725720 10.781334 -11.830733 2.464107 -17.215874 -13.646423 5.880160 2.512121 -15.909271 -4.601452 1.215792 29.277969 -2.773200 -8.203377 -1.897579 13.196407 -3.798948 -7.752943 -0.880038 14.264314 -14.310855 -10.274660 -8.107801 -7.499585 -0.125204 -3.827431 34.061000 7.367511 10.247239 -3.991713 
-0.002887 0.001011 -0.002807 177.971139 17.120177 -8.833986 -3.055340 3.414688 -0.032570 0.472590 -4.038521 -5.361071 -1.679680 25.935187 -2.810029 9.872035 -3.858897 0.625736 3.555766 -4.941298 -1.042059 -0.191326 3.700702 -1.709658 -3.948072 -23.767162 -3.529740 9.608449 7.549115 9.430746 -0.385135 2.854781 -2.083953 0.776224 -1.606980 -5.097370 -1.149804 2.367349 -2.231379 -1.571091 -5.260301 5.282078 0.921737 -1.433871 9.517024 -8.879998 10.369923 -11.604025 2.060267 -17.642311 -13.135275 5.590770 2.248464 -14.760839 -4.571338 1.118302 29.693037 -2.912014 -8.255941 -2.121757 13.451763 -3.601110 -7.785613 -0.503997 14.271635 -14.061543 -10.139591 -8.588304 -7.624551 -0.204789 -3.771219 33.917655 7.597494 10.303536 -4.064020 
-0.003565 0.001005 -0.004885 177.902494 16.978130 -8.885826 -3.143940 3.559912 0.073599 0.503233 -3.947346 -5.598351 -1.603914 25.845473 -2.746841 9.732127 -3.706738 0.719659 3.498928 -5.100948 -1.567535 -0.173742 3.498002 -0.772107 -3.681055 -23.496624 -3.810797 9.366534 7.409295 9.225485 -0.351506 2.779558 -1.917478 0.796021 -1.607545 -5.040229 -1.058587 2.372356 -2.134897 -1.550762 -5.301535 5.208760 1.155892 -1.408938 9.306842 -8.921519 9.805669 -11.601993 1.689977 -17.698874 -12.942549 5.533911 3.009882 -14.220416 -3.938123 0.910390 30.138693 -2.777794 -8.264908 -2.245261 13.345483 -3.253108 -7.776027 -0.413723 14.158305 -14.212237 -10.187269 -7.837449 -7.971311 -0.696093 -3.135690 33.669452 7.637333 10.148353 -4.149226 
-0.003951 0.001318 -0.007044 177.880387 16.491361 -8.745907 -3.007077 3.794840 -0.085142 0.349759 -3.595163 -5.833520 -1.822101 25.714425 -2.697319 9.813554 -3.778025 0.714078 3.435246 -5.022093 -2.008480 -0.012035 3.418725 -0.567744 -3.277046 -22.958615 -3.782467 8.867613 7.443213 8.856233 -0.354347 2.689265 -1.594916 0.712556 -1.572586 -5.439070 -1.070112 2.318238 -1.788644 -1.300480 -5.607172 4.962246 1.549183 -1.791042 9.180180 -9.228870 9.696888 -11.582607 0.433850 -18.156453 -12.558491 6.790730 3.101640 -15.704132 1.256626 -2.120569 27.569738 -2.430660 -7.588903 -0.957630 13.284985 -3.464841 -7.930051 1.392350 13.819186 -13.722647 -10.698687 -5.498040 -9.861469 -4.953365 0.120618 30.235959 7.402101 9.400530 -2.732989 
-0.001131 0.002358 -0.009937 177.902018 15.846646 -8.918426 -2.664706 3.723974 -0.330560 0.177097 -2.875869 -5.271609 -1.504881 25.005570 -2.967682 9.062784 -2.974201 0.338562 3.471957 -4.347095 -2.782731 0.234068 2.376446 0.752004 -2.724108 -21.802284 -4.246427 7.722690 7.175058 8.646432 -0.728883 2.292396 -0.595646 0.736373 -1.623370 -6.190915 -1.052235 1.820645 -0.277382 -0.891513 -5.677563 3.809303 1.888764 -2.282889 8.561259 -10.982423 10.427063 -11.107324 -8.064448 -18.866027 -10.202499 12.139004 0.446336 -25.779715 19.306800 -7.795213 11.502946 -2.673127 -4.944369 3.827059 14.349726 -5.100244 -8.379533 11.701519 12.134587 -10.133236 -14.498437 5.341164 -18.313329 -20.913000 6.900886 14.113486 7.944170 6.791629 2.418001 
0.003657 0.005119 -0.013888 178.344344 13.750411 -8.587877 -2.040988 3.497106 -1.851992 -0.595873 -0.118350 -2.483350 0.641922 22.472229 -5.297998 6.099674 0.829190 0.208924 3.576816 -2.647587 -4.859724 0.391321 0.542539 3.595857 -2.209640 -18.718317 -5.598389 6.765601 4.982398 9.658402 -1.178230 2.001253 0.365559 0.978336 -1.790240 -4.818989 -1.166927 0.947723 -1.077515 0.191938 -3.469539 2.045364 1.070446 -3.450902 8.095441 -16.899705 9.998831 -10.250919 -21.460782 -15.768629 -4.716273 15.205848 0.622687 -34.761980 17.679624 -8.297365 1.784036 -4.879489 -4.101857 2.972584 19.979156 -5.500412 -7.030236 27.534707 6.655967 -2.165679 -23.606793 21.506145 -23.654643 -22.780358 8.758866 3.563205 10.299977 5.206902 3.798813 
0.008466 0.007259 -0.014406 178.929262 9.741688 -8.258730 -1.257972 3.393648 -3.071359 -1.337026 2.576429 0.729033 3.316200 20.903993 -8.770596 2.484198 3.957945 -0.127756 3.625210 -0.688687 -8.270224 0.840921 0.303397 9.461260 -2.993031 -15.490755 -7.352607 8.660913 3.144681 10.941650 -1.646678 1.206141 0.799390 1.528905 -1.982392 -1.522577 -1.468753 0.267228 -3.107745 2.142909 -1.965169 -1.167995 -0.270406 -2.932129 9.300354 -24.061206 8.093900 -7.441444 -38.714084 -10.589887 5.785751 10.743552 0.150974 -29.294421 9.836780 -5.972088 2.182126 -6.072147 -4.547665 0.175313 27.139471 -3.936263 -3.286420 40.827253 2.749122 7.405125 -18.377961 23.007468 -13.344444 -17.724146 7.546515 5.924897 11.776268 5.451381 2.926640 
0.013070 0.007825 -0.009593 179.249827 6.797069 -9.030819 -0.625426 3.182926 -2.636075 -1.891640 2.894431 3.588986 5.311580 20.571779 -11.530400 -0.253853 5.704886 -2.691925 3.264309 1.621643 -13.606079 2.027737 2.858911 18.274976 -0.577422 -12.443964 -8.324131 4.686252 4.223157 9.762735 -1.967023 0.453078 1.913692 1.317003 -2.604815 2.310836 -1.499833 0.121036 -5.048116 1.203178 -2.249435 -3.366698 2.398980 -2.160140 9.982809 -29.181575 -1.192597 -2.602143 -50.952075 -9.179291 17.222429 6.153927 -6.070212 -3.966097 -3.396443 -3.093451 17.979110 -9.343694 -8.531902 -7.549616 31.449072 0.898993 1.887363 52.316790 -3.861725 13.861100 -9.590303 16.964411 4.530871 -2.528858 4.472058 13.984781 15.467191 9.165824 -1.255677 
0.015298 0.004590 0.004969 179.203294 4.700653 -10.424705 -0.588959 2.778580 -0.330871 -1.474461 -0.388680 5.140612 5.039654 18.949107 -12.256237 -1.689153 6.287470 -7.458006 2.899335 2.652470 -18.636998 1.795081 3.519263 18.261356 1.780388 -12.895120 -6.544708 -0.234539 6.137594 8.226327 -2.034721 -0.466413 3.733723 1.999088 -2.762287 4.989790 -1.122229 0.024728 -5.192292 -1.600736 -0.102832 -4.767328 3.976785 -1.420676 7.563194 -27.484392 -5.064875 -0.833819 -55.199701 -13.987071 27.319133 -3.170362 -32.292475 23.809305 -0.881372 -6.347723 22.294186 -13.982327 -11.244543 -13.412933 30.382719 -0.864171 2.562718 61.424518 -11.436343 15.063358 -8.464321 20.213414 6.445990 -1.799778 3.805873 2.561184 20.584062 12.510633 -2.853084 
0.016523 0.002807 0.033945 179.640437 1.166274 -11.651305 -1.689945 0.395801 3.108766 -1.141388 -7.108322 6.191201 4.387922 15.831450 -11.759141 -3.912702 6.864118 -12.036299 2.442094 3.074974 -23.221238 1.039601 3.507700 13.596937 2.748621 -13.783954 -4.711775 -2.228216 8.031604 7.493400 -1.834647 -1.303750 5.267865 2.436129 -2.320675 5.425468 -0.527312 0.130138 -4.139903 -3.595177 2.465272 -4.808838 4.775511 -0.440030 6.435255 -22.776105 -6.625548 -1.629553 -57.246133 -18.711868 30.313935 -12.076695 -51.329841 35.522623 4.447939 -10.258751 20.062492 -16.010046 -11.345364 -13.431376 27.369403 -2.067837 3.598247 65.017037 -15.330834 15.252456 -7.142794 20.405947 13.435522 -2.901035 3.611962 4.142902 21.446211 14.616512 -2.958283 
0.020791 0.001851 0.079800 -179.805119 -0.747310 -12.028824 -1.970715 2.728521 7.798293 0.071976 -5.605807 4.356867 3.779705 14.974315 -10.305258 -4.749797 6.913972 -13.287864 0.794314 2.112877 -25.623284 0.693173 3.086937 7.493589 2.632330 -12.515296 -2.569152 -1.153731 7.931561 7.673991 -1.170000 -2.212044 4.241106 2.664058 -1.857821 7.438835 -0.829019 0.196140 -5.242593 -2.883532 3.853760 -3.397288 3.530664 -0.329795 6.950948 -22.404957 -5.442442 -2.148047 -58.719682 -20.739917 31.056230 -14.023133 -55.499674 34.277845 0.928792 -9.592567 19.931161 -16.296712 -12.134066 -15.568727 27.135509 -3.183774 4.482709 63.897198 -13.339842 15.505832 -8.625552 13.578715 12.206123 -0.031748 1.277892 9.242034 20.782373 16.170256 -5.540351 
0.030559 -0.000622 0.143300 179.915945 -0.292823 -11.837627 -0.345842 4.467340 12.132549 0.169937 -7.143877 4.337293 3.489207 15.196270 -12.931003 -5.629965 6.844039 -12.086083 -0.704975 0.786383 -25.281632 0.322548 2.354838 3.414683 2.564574 -12.406449 -1.991838 -0.855008 6.350117 8.320649 -0.395393 -2.905875 2.610484 3.283654 -1.968508 7.689146 -0.718780 0.255490 -4.812835 -3.137728 2.490338 -2.494605 2.947293 0.811362 7.152089 -24.582402 -5.832197 -0.638474 -59.341198 -18.310762 29.851985 -9.065961 -46.402002 28.640350 1.094766 -7.970123 18.692838 -15.353401 -11.522683 -14.938269 27.794185 -2.520487 3.781955 61.125711 -9.982038 11.949680 -11.522208 9.033588 4.570698 -2.075956 0.168995 10.125735 21.293951 14.998152 -5.961341 
0.054120 -0.002694 0.220907 179.784653 1.959308 -10.186217 1.974686 4.197242 14.714321 0.026217 -10.197033 5.978719 4.370846 14.958951 -13.722495 -7.249980 7.614911 -11.312263 -2.232317 0.624765 -25.270048 1.171514 3.353871 9.080108 2.975813 -10.713815 -3.559814 -1.517868 3.277069 7.382140 -0.299823 -3.358983 0.180802 3.571049 -1.889006 6.656403 -0.708822 0.142559 -4.953493 -2.793069 1.892912 -1.983002 3.274494 1.439656 7.292808 -25.793899 -6.523057 0.268817 -57.113834 -13.122704 28.061430 -7.068205 -28.119532 28.870801 -3.261104 -6.380297 20.508370 -12.920284 -10.022208 -13.854339 27.530860 -1.550244 2.502639 58.420774 -8.582784 9.597632 -12.765593 11.584155 0.443362 -1.800631 2.097653 8.280400 21.618283 11.968778 -5.455873 
